<svg width="141" height="447" viewBox="0 0 141 447" fill="none" xmlns="http://www.w3.org/2000/svg">
<path d="M114.578 321.753C114.526 317.601 113.957 313.471 112.884 309.459L103 272.5L97.5001 247L84.248 253.858C80.6217 255.735 77.7393 258.786 76.0719 262.513L72.4249 270.666C70.3631 275.275 70.3271 280.537 72.3256 285.173L90.0426 326.279C90.678 327.753 91.1138 329.305 91.3384 330.895L97.5001 374.5L97.5526 434.274C97.5572 439.586 102.04 443.794 107.342 443.463V443.463C112.242 443.156 116.042 439.061 115.98 434.151L114.578 321.753Z" fill="#E7B8AF"/>
<path d="M115.972 434.81L98 430.5L97.5963 439.799C97.4524 443.112 100.099 445.877 103.416 445.877H131.303C132.504 445.877 132.919 444.281 131.871 443.695L115.972 434.81Z" fill="#E7B8AF"/>
<path d="M24.0589 321.944C24.1108 317.791 24.6797 313.661 25.7526 309.649L35.637 272.691L41.1368 247.191L54.3889 254.049C58.0152 255.925 60.8977 258.977 62.565 262.704L66.212 270.856C68.2738 275.465 68.3099 280.727 66.3114 285.364L48.5944 326.469C47.959 327.944 47.5231 329.496 47.2985 331.086L41.1368 374.691L41.0844 434.465C41.0797 439.777 36.5968 443.985 31.2954 443.653V443.653C26.3949 443.347 22.5954 439.252 22.6567 434.342L24.0589 321.944Z" fill="#E7B8AF"/>
<path d="M22.6653 435L40.637 430.691L41.0407 439.99C41.1845 443.303 38.5375 446.067 35.2214 446.067H7.33381C6.13328 446.067 5.71753 444.471 6.76552 443.886L22.6653 435Z" fill="#E7B8AF"/>
<path d="M44 135H102L104.304 139.164C110.166 149.761 106.14 163.107 95.3948 168.695V168.695C92.0798 170.418 90 173.844 90 177.581V203.764C90 210.57 90.6949 217.359 92.074 224.024L96 243L44 242L48.0948 226.713C50.3552 218.274 51.5 209.575 51.5 200.839V175.09C51.5 171.951 49.7884 169.063 47.0356 167.555V167.555C37.9584 162.584 34.7358 151.127 39.8909 142.153L44 135Z" fill="#E7B8AF"/>
<path d="M40 247L98 247L77.8123 276.515C74.3942 281.512 67.1027 281.74 63.3786 276.967L40 247Z" fill="white"/>
<path d="M42.496 243.509C43.4084 241.38 45.5018 240 47.818 240H92.2099C95.4077 240 98 242.592 98 245.79V247H41L42.496 243.509Z" fill="black"/>
<path d="M70.8263 245.177L70.5349 244.143L69.8913 244.951L70.7148 245.316L70.8263 245.177ZM71.5828 246.406C71.6136 246.444 71.6635 246.444 71.6943 246.406C71.7251 246.367 71.7251 246.304 71.6943 246.266L71.5828 246.406ZM70.659 245.246L71.5828 246.406L71.6943 246.266L70.7705 245.107L70.659 245.246Z" fill="black"/>
<path d="M73.1325 244.745C73.1636 244.706 73.1642 244.644 73.1338 244.605C73.1034 244.566 73.0535 244.565 73.0223 244.604L73.1325 244.745ZM72.147 245.681L71.3201 246.038L71.956 246.852L72.2572 245.822L72.147 245.681ZM73.0223 244.604L72.0906 245.75L72.2008 245.891L73.1325 244.745L73.0223 244.604Z" fill="black"/>
<path d="M73.6771 245.177L73.3858 244.143L72.7422 244.951L73.5656 245.316L73.6771 245.177ZM74.4337 246.406C74.4644 246.444 74.5143 246.444 74.5451 246.406C74.5759 246.367 74.5759 246.304 74.5451 246.266L74.4337 246.406ZM73.5099 245.246L74.4337 246.406L74.5451 246.266L73.6213 245.107L73.5099 245.246Z" fill="black"/>
<path d="M75.1026 245.177L74.8113 244.143L74.1677 244.951L74.9911 245.316L75.1026 245.177ZM75.8592 246.406C75.89 246.444 75.9399 246.444 75.9707 246.406C76.0015 246.367 76.0015 246.304 75.9707 246.266L75.8592 246.406ZM74.9354 245.246L75.8592 246.406L75.9707 246.266L75.0469 245.107L74.9354 245.246Z" fill="black"/>
<path d="M77.4209 244.788C77.4533 244.75 77.456 244.688 77.4268 244.648C77.3977 244.608 77.3478 244.606 77.3154 244.643L77.4209 244.788ZM76.4164 245.678L75.5779 246.009L76.1873 246.842L76.522 245.823L76.4164 245.678ZM77.3154 244.643L76.3577 245.746L76.4633 245.89L77.4209 244.788L77.3154 244.643Z" fill="black"/>
<path d="M17.0415 129.384C16.2907 132.781 18.8761 136 22.3548 136H33L36.6024 134.319C39.0106 133.195 41.8375 133.455 44 135V135H102V135C104.169 132.521 107.486 131.372 110.724 131.98L113.5 132.5L119.686 133.899C123.752 134.819 127.254 130.929 125.914 126.981V126.981C122.976 118.324 114.85 112.5 105.707 112.5H84L80 109L72 118L64.5 109L60 112.5H35L33.3486 112.885C25.1909 114.789 18.8495 121.205 17.0415 129.384V129.384Z" fill="#E7B8AF"/>
<path d="M120.85 252.047L128.221 250.697C128.825 250.587 129.411 250.967 129.555 251.565L131.579 259.951L131.819 263.783C131.865 264.502 130.848 264.696 130.625 264.012L129.298 259.951L127.48 265.062C127.247 265.717 126.276 265.54 126.289 264.844L126.407 258.76L123.871 264.283C123.579 264.918 122.621 264.648 122.705 263.954L123.399 258.17L119.298 263.271C118.877 263.795 118.041 263.357 118.232 262.712L119.789 257.462L116.365 259.319C115.773 259.64 115.171 258.908 115.601 258.389L120.85 252.047Z" fill="#E7B8AF"/>
<ellipse cx="71" cy="221.5" rx="1" ry="2.5" fill="#D2A3A3"/>
<path d="M34.0002 126V126C34.0002 118.642 24.3255 115.934 20.5067 122.224L17.9443 126.445C17.3216 127.47 16.9189 128.614 16.7618 129.804L10.0001 181L10.0001 254.5L18.6486 259.89L24.0002 182L33.0002 135.5L34.0002 126Z" fill="#E7B8AF"/>
<path d="M18.4849 254L10.9426 252.951C10.5106 252.891 10.0815 253.079 9.83243 253.437L4.32136 261.361C3.92052 261.937 4.64569 262.626 5.20047 262.196L9.21637 259.082L7.85455 264.333C7.67998 265.006 8.58346 265.404 8.96228 264.821L12.2777 259.717L11.2798 265.712C11.1649 266.402 12.1091 266.716 12.4296 266.094L15.0991 260.917L15.6327 267.44C15.6875 268.11 16.6249 268.216 16.8283 267.575L18.4849 262.356L20.5777 266.392C20.8732 266.962 21.7352 266.752 21.7352 266.11L21.7352 264L18.4849 254Z" fill="#E7B8AF"/>
<path d="M72 86L72.1697 112.85" stroke="#E7B8AF" stroke-width="22" stroke-linecap="round"/>
<path d="M110.213 125.53C110.142 124.858 109.874 124.223 109.443 123.703V123.703C106.902 120.643 110.751 116.443 114.021 118.707L124.192 125.748C125.346 126.547 126.121 127.786 126.336 129.173L133.795 177.491C134.001 178.826 134.056 180.18 133.96 181.528L129 251L121 252L120.125 182.116C120.111 181.041 120.002 179.969 119.798 178.914L111.105 134L110.213 125.53Z" fill="#E7B8AF"/>
<path d="M73.3134 90.7757L71.993 90.77C58.9827 90.7143 48.053 80.9637 46.5183 68.0435L42.408 33.4407C41.3583 24.604 44.9447 15.8534 51.893 10.2975L57.3097 5.96632C66.6767 -1.52358 79.9773 -1.55208 89.3829 5.89761L95.147 10.463C102.138 16.0005 105.769 24.7593 104.746 33.6167L100.772 67.9907C99.2708 80.9783 88.2752 90.7757 75.2003 90.7757L73.3134 90.7757Z" fill="#E7B8AF"/>
<path d="M91.1404 41.863C91.1404 42.7372 90.6542 43.5709 89.7835 44.2041C88.9134 44.8369 87.6874 45.2432 86.3116 45.2432C84.9358 45.2432 83.7099 44.8369 82.8398 44.2041C81.9691 43.5709 81.4829 42.7372 81.4829 41.863C81.4829 40.9888 81.9691 40.1552 82.8398 39.522C83.7099 38.8891 84.9358 38.4829 86.3116 38.4829C87.6874 38.4829 88.9134 38.8891 89.7835 39.522C90.6542 40.1552 91.1404 40.9888 91.1404 41.863Z" fill="#D9D9D9" stroke="#DEC9C9" stroke-width="0.965753"/>
<ellipse cx="85.6477" cy="41.863" rx="1.32791" ry="1.28767" fill="#9CC5B0"/>
<path d="M55.4829 41.863C55.4829 42.7372 55.9691 43.5709 56.8398 44.2041C57.7099 44.8369 58.9359 45.2432 60.3116 45.2432C61.6874 45.2432 62.9134 44.8369 63.7835 44.2041C64.6542 43.5709 65.1404 42.7372 65.1404 41.863C65.1404 40.9888 64.6542 40.1552 63.7835 39.522C62.9134 38.8891 61.6874 38.4829 60.3116 38.4829C58.9359 38.4829 57.7099 38.8891 56.8398 39.522C55.9691 40.1552 55.4829 40.9888 55.4829 41.863Z" fill="#D9D9D9" stroke="#DEC9C9" stroke-width="0.965753"/>
<ellipse cx="1.32791" cy="1.28767" rx="1.32791" ry="1.28767" transform="matrix(-1 0 0 1 62.3035 40.5753)" fill="#9CC5B0"/>
<path d="M40.6033 51.6841C40.8149 54.0802 40.8947 54.9843 41.5738 56.2044C42.6653 58.1655 45.8781 59.0858 45.6391 56.8541C45.4897 55.4587 44.8895 53.5227 45.2993 51.2694C44.924 47.0189 45.1558 41.8383 38.5232 41.5261C37.1643 45.1294 40.228 47.4336 40.6033 51.6841Z" fill="#E7B8AF"/>
<path d="M107.118 48.7321C107.118 51.1376 107.118 52.0452 106.549 53.3203C105.634 55.3698 102.515 56.5691 102.557 54.3251C102.583 52.9219 103.01 50.9407 102.404 48.7321C102.404 44.4651 101.717 39.325 108.297 38.4306C109.967 41.9004 107.118 44.4651 107.118 48.7321Z" fill="#E7B8AF"/>
<path d="M74.6455 54.6657V54.6657C74.7494 53.8906 73.7068 53.5417 73.3233 54.2233L73.0743 54.6657" stroke="#AB6F63" stroke-width="1.04745" stroke-linecap="round"/>
<path d="M69 76L70.9938 77.1963C72.2942 77.9765 73.9189 77.9765 75.2194 77.1963L77.2131 76" stroke="#AB6F63" stroke-width="0.821314" stroke-linecap="round"/>
<path d="M37.7081 147.46C38.8138 141.931 42.8343 137.439 48.2069 135.73V135.73C49.7265 135.246 51.3117 135 52.9064 135H92.5369C93.8403 135 95.1384 135.167 96.3996 135.496L97.1425 135.689C102.531 137.095 106.589 141.537 107.505 147.029V147.029C107.831 148.988 107.741 150.993 107.24 152.914L106.52 155.674C105.529 159.473 103.434 162.892 100.5 165.5V165.5V165.5C97.6012 168.077 93.8576 169.5 89.9792 169.5H52.8666C51.9578 169.5 51.0511 169.41 50.1599 169.232V169.232C46.2464 168.449 42.8634 166.011 40.8833 162.546L39.6697 160.422C38.566 158.49 37.8265 156.373 37.4883 154.174L37.4473 153.907C37.1514 151.984 37.1952 150.024 37.5769 148.116L37.7081 147.46Z" fill="#F1F1F1"/>
</svg>
