<svg width="141" height="446" viewBox="0 0 141 446" fill="none" xmlns="http://www.w3.org/2000/svg">
<path d="M113.648 273.535C113.505 263.675 105.471 255.757 95.6093 255.757L90.3399 255.757C83.2264 255.757 76.7771 259.937 73.8722 266.43L71.8404 270.972C70.1269 274.802 69.8022 279.11 70.922 283.153L89.5706 350.496C89.8788 351.609 90.0794 352.749 90.1697 353.9L94.666 411.228L96.7124 433.739C97.1849 438.937 101.707 442.815 106.916 442.489C112.052 442.168 116.031 437.871 115.956 432.726L113.648 273.535Z" fill="#E7B8AF"/>
<path d="M115.972 433.81H96.7499L97.042 439.358C97.2048 442.452 99.7607 444.877 102.859 444.877H131.303C132.504 444.877 132.919 443.281 131.871 442.695L115.972 433.81Z" fill="#E7B8AF"/>
<path d="M27.0252 272.987C27.1682 263.127 35.2023 255.208 45.0638 255.208L50.3332 255.208C57.4467 255.208 63.896 259.389 66.8009 265.882L68.8327 270.424C70.5461 274.254 70.8709 278.562 69.7511 282.605L51.1025 349.948C50.7943 351.061 50.5937 352.201 50.5034 353.352L46.0071 410.68L43.9607 433.191C43.4882 438.388 38.9657 442.267 33.7566 441.941C28.6209 441.62 24.6423 437.323 24.7169 432.178L27.0252 272.987Z" fill="#E7B8AF"/>
<path d="M34.482 144.773C30.8528 121.234 49.0636 100 72.8808 100C97.4986 100 115.91 122.603 110.93 146.712L100.177 198.767C98.6359 206.23 99.1005 213.968 101.524 221.193L105.188 232.116C112.754 254.67 95.9719 278 72.1824 278C49.5292 278 32.91 256.707 38.4117 234.732L42.2837 219.267C43.7883 213.257 44.0771 207.008 43.1331 200.885L34.482 144.773Z" fill="#E7B8AF"/>
<path d="M34.2161 244.476C35.0306 242.081 37.3063 240.492 39.8359 240.552L108.54 242.188L111.904 264.292C112.308 266.947 110.834 269.531 108.343 270.534L74.0631 284.341C72.0287 285.161 69.7641 285.204 67.6999 284.463L34.0184 272.372C29.4248 270.723 27.0014 265.696 28.5725 261.076L34.2161 244.476Z" fill="white"/>
<path d="M34.288 243.976C35.0612 241.588 37.2859 239.969 39.7967 239.969H103.908C107.106 239.969 109.699 242.562 109.699 245.76V248.913H32.6899L34.288 243.976Z" fill="black"/>
<path d="M70.8263 244.177L70.5349 243.143L69.8913 243.951L70.7148 244.316L70.8263 244.177ZM71.5828 245.406C71.6136 245.444 71.6635 245.444 71.6943 245.406C71.7251 245.367 71.7251 245.304 71.6943 245.266L71.5828 245.406ZM70.659 244.246L71.5828 245.406L71.6943 245.266L70.7705 244.107L70.659 244.246Z" fill="black"/>
<path d="M73.1325 243.745C73.1636 243.706 73.1642 243.644 73.1338 243.605C73.1034 243.566 73.0535 243.565 73.0223 243.604L73.1325 243.745ZM72.147 244.681L71.3201 245.038L71.956 245.852L72.2572 244.822L72.147 244.681ZM73.0223 243.604L72.0906 244.75L72.2008 244.891L73.1325 243.745L73.0223 243.604Z" fill="black"/>
<path d="M73.6771 244.177L73.3858 243.143L72.7422 243.951L73.5656 244.316L73.6771 244.177ZM74.4337 245.406C74.4644 245.444 74.5143 245.444 74.5451 245.406C74.5759 245.367 74.5759 245.304 74.5451 245.266L74.4337 245.406ZM73.5099 244.246L74.4337 245.406L74.5451 245.266L73.6213 244.107L73.5099 244.246Z" fill="black"/>
<path d="M75.1026 244.177L74.8113 243.143L74.1677 243.951L74.9911 244.316L75.1026 244.177ZM75.8592 245.406C75.89 245.444 75.9399 245.444 75.9707 245.406C76.0015 245.367 76.0015 245.304 75.9707 245.266L75.8592 245.406ZM74.9354 244.246L75.8592 245.406L75.9707 245.266L75.0469 244.107L74.9354 244.246Z" fill="black"/>
<path d="M77.4209 243.788C77.4533 243.75 77.456 243.688 77.4268 243.648C77.3977 243.608 77.3478 243.606 77.3154 243.643L77.4209 243.788ZM76.4164 244.678L75.5779 245.009L76.1873 245.842L76.522 244.823L76.4164 244.678ZM77.3154 243.643L76.3577 244.746L76.4633 244.89L77.4209 243.788L77.3154 243.643Z" fill="black"/>
<path d="M15.5791 129.6C15.5791 132.582 17.9968 135 20.9791 135H123.764C126.661 135 129.027 132.686 129.092 129.791C129.359 117.836 119.741 108 107.783 108H37.1791C25.2498 108 15.5791 117.671 15.5791 129.6Z" fill="#E7B8AF"/>
<path d="M24.7014 433.262H43.9232L43.6311 438.81C43.4683 441.904 40.9124 444.329 37.8144 444.329H9.36994C8.16941 444.329 7.75366 442.732 8.80165 442.147L24.7014 433.262Z" fill="#E7B8AF"/>
<path d="M113.183 132.924C112.929 128.816 115.702 125.134 119.721 124.245C124.934 123.092 129.878 127.054 129.887 132.393L130.082 249.782C130.088 253.029 126.949 255.354 123.844 254.403C121.922 253.814 120.567 252.095 120.442 250.088L113.183 132.924Z" fill="#E7B8AF"/>
<path d="M120.85 251.047L128.221 249.697C128.825 249.587 129.411 249.967 129.555 250.565L131.579 258.951L131.819 262.783C131.865 263.502 130.848 263.696 130.625 263.012L129.298 258.951L127.48 264.062C127.247 264.717 126.276 264.54 126.289 263.844L126.407 257.76L123.871 263.283C123.579 263.918 122.621 263.648 122.705 262.954L123.399 257.17L119.298 262.271C118.877 262.795 118.041 262.357 118.232 261.712L119.789 256.462L116.365 258.319C115.773 258.64 115.171 257.908 115.601 257.389L120.85 251.047Z" fill="#E7B8AF"/>
<ellipse cx="71.737" cy="214.432" rx="1.73704" ry="2.43185" fill="#D2A3A3"/>
<path d="M33.5263 131.646C34.0216 127.41 31.5119 123.398 27.4867 121.99C21.7718 119.991 15.7332 124.021 15.3859 130.065L8.25906 254.12C8.05153 257.733 11.3622 260.538 14.8915 259.74C17.1426 259.231 18.8277 257.357 19.0957 255.064L33.5263 131.646Z" fill="#E7B8AF"/>
<path d="M18.4849 253L10.9426 251.951C10.5106 251.891 10.0815 252.079 9.83243 252.437L4.32136 260.361C3.92052 260.937 4.64569 261.626 5.20047 261.196L9.21637 258.082L7.85455 263.333C7.67998 264.006 8.58346 264.404 8.96228 263.821L12.2777 258.717L11.2798 264.712C11.1649 265.402 12.1091 265.716 12.4296 265.094L15.0991 259.917L15.6327 266.44C15.6875 267.11 16.6249 267.216 16.8283 266.575L18.4849 261.356L20.5777 265.392C20.8732 265.962 21.7352 265.752 21.7352 265.11L21.7352 263L18.4849 253Z" fill="#E7B8AF"/>
<path d="M72.4158 75.1502L72.5855 102" stroke="#E7B8AF" stroke-width="22" stroke-linecap="round"/>
<path d="M101.5 37C101.5 64.1813 96.7887 94.958 71.8459 94.958C46.9031 94.958 39.5001 64.1812 39.5001 37C37.5 10 47.5001 5.49998 71.8459 2.5C97.0001 4.5 102.5 9.5 101.5 37Z" fill="#E7B8AF"/>
<path d="M52.7384 37.0568C52.7384 38.0821 53.3618 39.0812 54.5156 39.8504C55.6654 40.6169 57.2872 41.1099 59.1075 41.1099C60.9278 41.1099 62.5496 40.6169 63.6994 39.8504C64.8533 39.0812 65.4767 38.0821 65.4767 37.0568C65.4767 36.0315 64.8533 35.0324 63.6994 34.2632C62.5496 33.4966 60.9278 33.0037 59.1075 33.0037C57.2872 33.0037 55.6654 33.4966 54.5156 34.2632C53.3618 35.0324 52.7384 36.0315 52.7384 37.0568Z" fill="#D9D9D9" stroke="#DEC9C9" stroke-width="1.15802"/>
<ellipse cx="1.73704" cy="1.54403" rx="1.73704" ry="1.54403" transform="matrix(-1 0 0 1 61.7131 35.5128)" fill="#9CC5B0"/>
<path d="M89.7952 37.0568C89.7952 38.105 89.2122 39.1047 88.1682 39.8639C87.1248 40.6227 85.6548 41.1099 84.0051 41.1099C82.3554 41.1099 80.8854 40.6227 79.842 39.8639C78.7981 39.1047 78.215 38.105 78.215 37.0568C78.215 36.0085 78.7981 35.0089 79.842 34.2497C80.8854 33.4908 82.3554 33.0037 84.0051 33.0037C85.6548 33.0037 87.1248 33.4908 88.1682 34.2497C89.2122 35.0089 89.7952 36.0085 89.7952 37.0568Z" fill="#D9D9D9" stroke="#DEC9C9" stroke-width="1.15802"/>
<ellipse cx="83.209" cy="37.0568" rx="1.59228" ry="1.54403" fill="#9CC5B0"/>
<path d="M104.258 41.2642C104.258 43.4274 104.258 44.2436 103.746 45.3903C102.924 47.2335 100.118 48.312 100.156 46.2939C100.179 45.0321 100.564 43.2503 100.018 41.2642C100.018 37.4268 99.401 32.8043 105.318 32C106.82 35.1204 104.258 37.4268 104.258 41.2642Z" fill="#E7B8AF"/>
<path d="M36.4791 40.5309C36.4791 42.6941 36.4791 43.5103 36.9909 44.657C37.8135 46.5002 40.6188 47.5787 40.5813 45.5606C40.5578 44.2987 40.1733 42.517 40.7187 40.5309C40.7187 36.6935 41.3361 32.071 35.4192 31.2667C33.9169 34.3871 36.4791 36.6935 36.4791 40.5309Z" fill="#E7B8AF"/>
<path d="M72.5068 53.8478V53.8478C72.6217 52.9908 71.469 52.6051 71.045 53.3587L70.7698 53.8478" stroke="#AB6F63" stroke-width="1.15802" stroke-linecap="round"/>
<path d="M65.5791 74L68.3902 75.6867C70.2239 76.7869 72.5146 76.7869 74.3482 75.6867L77.1593 74" stroke="#AB6F63" stroke-width="1.15802" stroke-linecap="round"/>
</svg>
