<svg width="95" height="189" viewBox="0 0 95 189" fill="none" xmlns="http://www.w3.org/2000/svg">
<path fill-rule="evenodd" clip-rule="evenodd" d="M8.30914 3.89024C8.82715 1.6146 10.8506 0 13.1844 0H82.9668C85.475 0 87.595 1.85828 87.9237 4.34484L91.4359 30.9182L94.4609 185.465C94.4828 186.584 93.5812 187.504 92.4613 187.504H75.2369C72.7936 187.504 70.7082 185.738 70.3053 183.328L48.9779 55.7455C48.6053 53.5166 45.4009 53.5193 45.0321 55.7488L23.6789 184.816C23.2796 187.23 21.1924 189 18.7459 189H2C0.89543 189 0 188.105 0 187V71.3113V40.6179C0 40.4685 0.0167326 40.3196 0.0498848 40.174L8.30914 3.89024ZM9.15108 87.7678L9.85916 90.5138L10.159 92.6449L11.4754 91.9406L12.0252 93.1046L13.2165 92.8838L14.6745 92.7286L17.1489 89.7379L15.2243 93.8927L13.3914 95.4984L9.51752 94.0298L7.15147 95.5042L8.43451 92.7344L9.15108 87.7678ZM74.0682 99.2375L71.5142 96.7441L72.5358 101.731L71.5142 104.723L75.0899 102.728L82.7521 103.227L85.3062 101.232L86.8386 96.7441L83.7737 100.235L81.2196 100.734L79.1764 101.232L77.6439 100.235L75.6007 101.232L74.0682 99.2375Z" fill="#D9D9D9"/>
<path d="M69 0H78.5H83.1464C85.6421 0 87.7556 1.84024 88.0989 4.31216L90 18L76.6838 14.8295C72.1791 13.7569 69 9.73202 69 5.10141V0Z" fill="#ABA1A1"/>
<path d="M29 0H19.5H14.6214C12.228 0 10.1702 1.69619 9.71335 4.04565L7 18L21.2162 14.769C25.7691 13.7343 29 9.6867 29 5.01771V0Z" fill="#ABA1A1"/>
<path opacity="0.25" d="M51 3V0H45V3H51ZM45 20C45 21.6569 46.3431 23 48 23C49.6569 23 51 21.6569 51 20H45ZM45 3V20H51V3H45Z" fill="#ABA1A1"/>
</svg>
