<svg width="93" height="151" viewBox="0 0 93 151" fill="none" xmlns="http://www.w3.org/2000/svg">
<path d="M10.1299 3.91535C10.6383 1.62766 12.6674 0 15.0109 0H83.1037C85.6178 0 87.7409 1.86676 88.0626 4.36014L91.5 31L93 90.5V148.5C93 149.605 92.1046 150.5 91 150.5H67.3451C64.8531 150.5 62.7415 148.665 62.394 146.197L49.6984 56.0589C49.3826 53.8166 46.1703 53.7432 45.7523 55.9687L28.7657 146.423C28.3217 148.787 26.2571 150.5 23.8516 150.5H2C0.895431 150.5 0 149.605 0 148.5V71.5L1.99005 40.6542C1.99667 40.5516 2.01121 40.4496 2.03353 40.3491L10.1299 3.91535Z" fill="#211E1E"/>
<path d="M69 0H78.5H83.1464C85.6421 0 87.7556 1.84024 88.0989 4.31216L90 18L76.6838 14.8295C72.1791 13.7569 69 9.73202 69 5.10141V0Z" fill="#333333"/>
<path d="M29 0H19.5H14.6214C12.228 0 10.1702 1.69619 9.71335 4.04565L7 18L21.2162 14.769C25.7691 13.7343 29 9.6867 29 5.01771V0Z" fill="#333333"/>
</svg>
