<svg width="95" height="189" viewBox="0 0 95 189" fill="none" xmlns="http://www.w3.org/2000/svg">
<path opacity="0.42" d="M69 0H78.5H83.1464C85.6421 0 87.7556 1.84024 88.0989 4.31216L90 18L81.4899 7.02316C80.5109 5.7604 79.2436 4.7506 77.794 4.07836L69 0Z" fill="#ABA1A1"/>
<path opacity="0.47" d="M27 0H17.5H12.6214C10.228 0 8.17018 1.69619 7.71335 4.04565L5 18L12.8316 7.36671C13.9227 5.88527 15.4013 4.73356 17.1048 4.03835L27 0Z" fill="#ABA1A1"/>
<path opacity="0.03" d="M51 3V0H45V3H51ZM45 20C45 21.6569 46.3431 23 48 23C49.6569 23 51 21.6569 51 20H45ZM45 3V20H51V3H45Z" fill="#ABA1A1"/>
<path d="M8.30914 3.89024C8.82715 1.6146 10.8506 0 13.1844 0H82.9668C85.475 0 87.595 1.85828 87.9237 4.34484L91.4359 30.9182L94.4609 185.465C94.4828 186.584 93.5812 187.504 92.4613 187.504H75.2369C72.7936 187.504 70.7082 185.738 70.3053 183.328L48.9779 55.7455C48.6053 53.5166 45.4009 53.5193 45.0321 55.7488L23.6789 184.816C23.2796 187.23 21.1924 189 18.7459 189H2C0.89543 189 0 188.105 0 187V71.3113V40.6179C0 40.4685 0.0167326 40.3196 0.0498848 40.174L8.30914 3.89024Z" fill="#232323"/>
<g opacity="0.04">
<path d="M23 52L12 179" stroke="#ABA1A1" stroke-width="3" stroke-linecap="round"/>
<path d="M23 52L12 179" stroke="#ABA1A1" stroke-width="3" stroke-linecap="round"/>
</g>
<g opacity="0.04">
<path d="M72 52L83 179" stroke="#ABA1A1" stroke-width="3" stroke-linecap="round"/>
<path d="M72 52L83 179" stroke="#ABA1A1" stroke-width="3" stroke-linecap="round"/>
</g>
</svg>
