<svg width="91" height="104" viewBox="0 0 91 104" fill="none" xmlns="http://www.w3.org/2000/svg">
<path d="M8.12992 3.91535C8.6383 1.62766 10.6674 0 13.0109 0H81.1037C83.6178 0 85.7409 1.86676 86.0626 4.36014L89.5 31L90.9589 100.054C90.9818 101.137 90.1381 102.042 89.056 102.094L64.1558 103.299C61.7476 103.415 59.5993 101.797 59.047 99.45L47.8175 51.7245C47.3416 49.7018 44.4789 49.6565 43.9393 51.6632L31.0479 99.6031C30.4364 101.877 28.3214 103.416 25.9697 103.298L1.90013 102.095C0.835706 102.042 0 101.163 0 100.098V71.5V40.7195C0 40.5736 0.0159704 40.4281 0.0476259 40.2857L8.12992 3.91535Z" fill="#D9D9D9"/>
<path d="M67 0H76.5H81.1464C83.6421 0 85.7556 1.84024 86.0989 4.31216L88 18L74.6838 14.8295C70.1791 13.7569 67 9.73202 67 5.10141V0Z" fill="#ABA1A1"/>
<path d="M27 0H17.5H12.6214C10.228 0 8.17018 1.69619 7.71335 4.04565L5 18L19.2162 14.769C23.7691 13.7343 27 9.6867 27 5.01771V0Z" fill="#ABA1A1"/>
</svg>
