<svg width="153" height="157" viewBox="0 0 153 157" fill="none" xmlns="http://www.w3.org/2000/svg">
<path d="M36.5393 17.9939C36.5393 15.576 38.4995 13.6158 40.9174 13.6158V13.6158H48.8133C51.1738 13.6158 53.4922 12.9902 55.5322 11.8026L65.5 6V6C65.5 9.91844 68.6765 13.095 72.595 13.095L79.3349 13.095C83.4443 13.095 86.9265 10.0692 87.5 6V6L96.8383 11.3357C98.8561 12.4886 101.14 13.095 103.464 13.095H108.417V13.095C113.075 13.095 116.815 16.9362 116.692 21.592L113.458 143.279C113.266 150.514 107.345 156.279 100.108 156.279H49.8942C42.5185 156.279 36.5393 150.3 36.5393 142.924L36.5393 17.9939Z" fill="#232323"/>
<path d="M35.4139 60.9112C35.1604 63.034 32.9635 64.363 30.9248 63.6268L19.3171 59.4351C17.8987 58.9229 16.9977 57.5429 17.1135 56.06L18.8986 33.2108C19.2354 28.9008 20.9906 24.8207 23.8978 21.5905L25.1664 20.181C29.9592 14.8557 37.2875 12.479 44.3672 13.9539L44.5732 13.9968C44.8021 14.0445 45.0354 14.0686 45.2692 14.0686L53.9175 14.0686V14.0686C55.6624 14.0686 56.4865 16.1957 55.1834 17.336L39.8717 30.7337C39.257 31.2715 38.8644 32.0134 38.7683 32.8188L35.4139 60.9112Z" fill="#232323"/>
<path d="M117.068 61.4798C117.321 63.6026 119.518 64.9316 121.557 64.1954L133.165 60.0037C134.583 59.4915 135.484 58.1115 135.368 56.6286L133.583 33.7794C133.246 29.4694 131.491 25.3893 128.584 22.1592L126.353 19.6807C122.087 14.9406 115.774 12.5016 109.365 13.1178L101.245 13.8987C98.321 14.1798 97.1326 17.7596 99.3258 19.6787L112.61 31.3023C113.225 31.8401 113.617 32.582 113.713 33.3874L117.068 61.4798Z" fill="#232323"/>
</svg>
