<svg width="140" height="150" viewBox="0 0 140 150" fill="none" xmlns="http://www.w3.org/2000/svg">
<path d="M20.1301 20.9515C19.4313 13.1827 25.5111 6.47103 33.3109 6.40075L115.139 5.66346C123.201 5.59082 129.489 12.6244 128.516 20.6282L114.385 136.966C113.571 143.669 107.88 148.71 101.127 148.71H43.8293C36.9172 148.71 31.1474 143.436 30.5281 136.552L20.1301 20.9515Z" fill="#211E1E"/>
<path d="M14.0561 15.1753C14.1616 13.8857 15.0042 12.7625 16.2184 12.2927L26.3928 8.35629C28.6328 7.48963 31.0017 9.16719 30.9036 11.5508L25.3527 146.446C25.2735 148.371 23.5813 149.852 21.6612 149.678L6.43321 148.296C4.62743 148.132 3.30383 146.559 3.45167 144.752L14.0561 15.1753Z" fill="#211E1E"/>
<path d="M132.204 12.4244C132.132 10.9429 131.09 9.67375 129.647 9.30891L120.791 7.07047C118.69 6.5394 116.67 8.10332 116.67 10.261L116.67 144.93C116.67 146.848 118.286 148.392 120.203 148.306L135.457 147.628C137.287 147.547 138.69 146.006 138.602 144.176L132.204 12.4244Z" fill="#211E1E"/>
<path d="M111.423 20.5984C111.423 31.9746 94.2463 41.1968 73.0572 41.1968C51.8681 41.1968 34.6909 31.9746 34.6909 20.5984C34.6909 9.22222 51.8681 0 73.0572 0C94.2463 0 111.423 9.22222 111.423 20.5984Z" fill="#211E1E"/>
</svg>
