<svg width="153" height="81" viewBox="0 0 153 81" fill="none" xmlns="http://www.w3.org/2000/svg">
<path d="M37 17.9556C37 15.5491 38.9509 13.5981 41.3575 13.5981V13.5981H50.9922C52.1942 13.5981 53.3907 13.4359 54.5492 13.1157L65.8245 10V10C65.8245 11.8513 67.3252 13.3521 69.1765 13.3521L83.229 13.3521C85.3032 13.3521 87.1306 11.9884 87.721 10V10L98.3631 12.8864C99.5026 13.1955 100.678 13.3521 101.859 13.3521H108.54V13.3521C113.134 13.3521 116.784 17.2122 116.527 21.7988L113.919 68.3916C113.523 75.4662 107.67 81 100.585 81H50.3549C42.9792 81 37 75.0208 37 67.6451V17.9556Z" fill="#232323"/>
<path d="M35.4139 60.9112C35.1604 63.034 32.9635 64.363 30.9248 63.6268L19.3171 59.4351C17.8987 58.9229 16.9977 57.5429 17.1135 56.06L18.8986 33.2108C19.2354 28.9008 20.9906 24.8207 23.8978 21.5905L25.1664 20.181C29.9592 14.8557 37.2875 12.479 44.3672 13.9539L44.5732 13.9968C44.8021 14.0445 45.0354 14.0686 45.2692 14.0686L53.9175 14.0686V14.0686C55.6624 14.0686 56.4865 16.1957 55.1834 17.336L39.8717 30.7337C39.257 31.2715 38.8644 32.0134 38.7683 32.8188L35.4139 60.9112Z" fill="#232323"/>
<path d="M117.068 61.4798C117.321 63.6026 119.518 64.9316 121.557 64.1954L133.165 60.0037C134.583 59.4915 135.484 58.1115 135.368 56.6286L133.583 33.7794C133.246 29.4694 131.491 25.3893 128.584 22.1592L126.353 19.6807C122.087 14.9406 115.774 12.5016 109.365 13.1178L101.245 13.8987C98.321 14.1798 97.1326 17.7596 99.3258 19.6787L112.61 31.3023C113.225 31.8401 113.617 32.582 113.713 33.3874L117.068 61.4798Z" fill="#232323"/>
</svg>
