<svg width="76" height="46" viewBox="0 0 76 46" fill="none" xmlns="http://www.w3.org/2000/svg">
<path d="M9.13074 43.5575L8.05654 44.7788L5.37102 41.115L4.56537 36.8407L1.61131 35.6195V33.7876L0 26.8673L1.61131 18.7257L6.17668 10.177L11.8163 6.30973L20.1413 2.0354L27.3922 0H31.9576H37.5972L42.6996 0.610619L49.1449 2.0354L54.7845 1.62832L57.2014 1.22124H60.1137L58.0071 2.0354L54.7845 3.86726L60.1137 3.25664H62.5724L66.3322 2.0354L70.629 1.22124V3.86726L69.8233 8.95575L69.0177 12.0088L72.5088 10.177L74.9258 8.34513L73.583 12.0088L70.629 15.6726L67.6749 18.7257L69.0177 19.7434L76 20.1504L71.7032 21.1681L67.6749 21.9823L69.0177 23.4071L70.629 27.4779V36.4336L69.0177 40.5044L67.6749 46H65.7951V45.1858V39.2832L64.4523 33.177L60.424 30.3274L54.7845 23.4071L48.3392 22.5929H45.1166L46.9965 29.1062L44.0424 26.8673L40.5512 23.8142L33.3004 20.1504H31.9576L37.5972 25.646L38.4028 27.4779L38.9399 29.7168V30.1239L35.1802 25.0354L29.2721 19.3363L24.9753 17.5044L19.6042 14.8584V20.5575L17.7244 22.5929L14.2332 28.292L8.05654 34.8053L9.13074 43.5575Z" fill="#AB6F63"/>
</svg>
