<svg width="131" height="27" viewBox="0 0 131 27" fill="none" xmlns="http://www.w3.org/2000/svg">
<path d="M1.38282 22.0021C1.76057 19.3578 3.61025 17.159 6.15082 16.3342L19.5 12L19.091 2.18502C19.0421 1.01112 20.0108 0.0481356 21.1844 0.104021L38.0086 0.905171C39.1094 0.957592 39.9604 1.8907 39.9115 2.99171L39.2058 18.8685C39.0897 21.4811 36.9801 23.5628 34.3662 23.6441L1 24.6818L1.38282 22.0021Z" fill="#767676"/>
<path d="M36.9998 6.49998C36.9998 8.70912 30.5373 20.5 27.4998 20.5C24.5002 22 19.4998 23.5 19.9999 17C21 12.5 23.5 14 24.5 16.5C27.5376 16.5 36.9998 4.29084 36.9998 6.49998Z" fill="#524848"/>
<path d="M20 12L19 2" stroke="#564747" stroke-linecap="round"/>
<path d="M1.43595 24.7371L34.5608 23.5341C35.1723 23.5119 35.7624 23.3032 36.2519 22.9361L37.5 22L39 20" stroke="#564747" stroke-linecap="round"/>
<path d="M129.617 23.0021C129.239 20.3578 127.39 18.159 124.849 17.3342L111.5 13L111.909 3.18502C111.958 2.01112 110.989 1.04814 109.816 1.10402L92.9914 1.90517C91.8906 1.95759 91.0396 2.8907 91.0885 3.99171L91.7942 19.8685C91.9103 22.4811 94.0199 24.5628 96.6338 24.6441L130 25.6818L129.617 23.0021Z" fill="#767676"/>
<path d="M94.0002 7.49998C94.0002 9.70912 100.463 21.5 103.5 21.5C106.5 23 111.5 24.5 111 18C110 13.5 107.5 15 106.5 17.5C103.462 17.5 94.0002 5.29084 94.0002 7.49998Z" fill="#524848"/>
<path d="M111 13L112 3" stroke="#564747" stroke-linecap="round"/>
<path d="M129.564 25.7371L96.4392 24.5341C95.8277 24.5119 95.2376 24.3032 94.7481 23.9361L93.5 23L92 21" stroke="#564747" stroke-linecap="round"/>
</svg>
